{"accessors":[{"bufferView":0,"componentType":5125,"count":27546,"max":[14053.0],"min":[0.0],"type":"SCALAR"},{"bufferView":1,"componentType":5126,"count":14054,"max":[523.002685546875,823.38232421875,521.4412841796875],"min":[-620.1851806640625,-861.2391967773438,-19.75346565246582],"type":"VEC3"},{"bufferView":2,"componentType":5126,"count":14054,"max":[0.999999463558197,0.9995521306991577,1.0],"min":[-0.9999956488609314,-0.9994500279426575,-1.0],"type":"VEC3"},{"bufferView":3,"componentType":5126,"count":14054,"max":[1.9447757005691529,2.537515163421631],"min":[-1.9171974658966065,-0.9905401468276978],"type":"VEC2"},{"bufferView":4,"componentType":5125,"count":4851,"max":[3282.0],"min":[0.0],"type":"SCALAR"},{"bufferView":5,"componentType":5126,"count":3283,"max":[523.1349487304688,823.38232421875,518.6747436523438],"min":[-620.191162109375,-861.2391967773438,-19.753501892089845],"type":"VEC3"},{"bufferView":6,"componentType":5126,"count":3283,"max":[0.9610480070114136,0.958184540271759,1.0],"min":[-0.9557093381881714,-0.999999463558197,-1.0],"type":"VEC3"},{"bufferView":7,"componentType":5126,"count":3283,"max":[1.0,1.0],"min":[5.551115123125783e-17,0.0],"type":"VEC2"},{"bufferView":8,"componentType":5125,"count":6555,"max":[4046.0],"min":[0.0],"type":"SCALAR"},{"bufferView":9,"componentType":5126,"count":4047,"max":[315.0892639160156,385.47186279296877,308.8738098144531],"min":[-308.2388916015625,-524.2406616210938,77.03250122070313],"type":"VEC3"},{"bufferView":10,"componentType":5126,"count":4047,"max":[0.8498928546905518,0.8619939088821411,0.9993255138397217],"min":[-0.8498984575271606,-0.8497305512428284,-0.9995951652526856],"type":"VEC3"},{"bufferView":11,"componentType":5126,"count":4047,"max":[0.01618257351219654,1.0113413333892823],"min":[-0.01043920312076807,0.9836235642433167],"type":"VEC2"},{"bufferView":12,"componentType":5125,"count":0,"max":[-2147483648.0],"min":[2147483648.0],"type":"SCALAR"},{"bufferView":13,"componentType":5126,"count":311,"max":[521.8974609375,604.52587890625,515.3905639648438],"min":[-547.6519775390625,-835.8118896484375,-19.749475479125978],"type":"VEC3"},{"bufferView":14,"componentType":5126,"count":311,"max":[0.953066349029541,0.9929980635643005],"min":[0.03414637967944145,0.13396352529525758],"type":"VEC2"},{"bufferView":15,"componentType":5125,"count":993,"max":[804.0],"min":[0.0],"type":"SCALAR"},{"bufferView":16,"componentType":5126,"count":805,"max":[74.40303039550781,19.17598533630371,36.017112731933597],"min":[0.2829475402832031,-3.6711578369140627,-2.0829830169677736],"type":"VEC3"},{"bufferView":17,"componentType":5126,"count":805,"max":[0.919877290725708,1.1754943508222876e-38,0.6663578152656555],"min":[-0.26751887798309328,-0.9999614357948303,-0.2627643644809723],"type":"VEC3"},{"bufferView":18,"componentType":5126,"count":805,"max":[0.09531627595424652,1.049355149269104],"min":[-3.5052974224090578,-0.6760345697402954],"type":"VEC2"},{"bufferView":19,"componentType":5125,"count":417,"max":[414.0],"min":[0.0],"type":"SCALAR"},{"bufferView":20,"componentType":5126,"count":415,"max":[426.30487060546877,45.4468994140625,37.776031494140628],"min":[-2173.008056640625,-527.5986938476563,-466.047119140625],"type":"VEC3"},{"bufferView":21,"componentType":5126,"count":415,"max":[1.0,1.0,1.0],"min":[-1.0,-1.0,-1.0],"type":"VEC3"},{"bufferView":22,"componentType":5126,"count":415,"max":[0.8926324248313904,1.1770278215408326],"min":[-0.4898020327091217,0.8017233610153198],"type":"VEC2"},{"bufferView":23,"componentType":5125,"count":48,"max":[47.0],"min":[0.0],"type":"SCALAR"},{"bufferView":24,"componentType":5126,"count":48,"max":[60.433467864990237,38.53019714355469,7.8999176025390629],"min":[-1779.154541015625,-505.5461120605469,-454.7129821777344],"type":"VEC3"},{"bufferView":25,"componentType":5126,"count":48,"max":[0.000002617236759760999,0.2107052206993103,0.9775571227073669],"min":[-1.156672044977704e-17,-0.914730966091156,-0.404180645942688],"type":"VEC3"},{"bufferView":26,"componentType":5126,"count":48,"max":[1.0,1.0],"min":[0.0,0.0],"type":"VEC2"},{"bufferView":27,"componentType":5125,"count":6,"max":[3.0],"min":[0.0],"type":"SCALAR"},{"bufferView":28,"componentType":5126,"count":4,"max":[867.8494262695313,1031.53466796875,1.1754943508222876e-38],"min":[-867.8434448242188,-1031.53564453125,0.0],"type":"VEC3"},{"bufferView":29,"componentType":5126,"count":4,"max":[1.1754943508222876e-38,1.1754943508222876e-38,1.0],"min":[-0.0,-0.0,1.0],"type":"VEC3"},{"bufferView":30,"componentType":5126,"count":4,"max":[0.4140795171260834,0.9426283240318298],"min":[0.039077918976545337,0.49340999126434328],"type":"VEC2"},{"bufferView":31,"componentType":5125,"count":14664,"max":[14663.0],"min":[0.0],"type":"SCALAR"},{"bufferView":32,"componentType":5126,"count":14664,"max":[867.8494262695313,1031.53466796875,168.41580200195313],"min":[-867.8434448242188,-1031.53564453125,-3.7436864376068117],"type":"VEC3"},{"bufferView":33,"componentType":5126,"count":14664,"max":[0.08655520528554917,0.12991635501384736,1.0],"min":[-0.7899680137634277,-0.5630114674568176,0.49666324257850649],"type":"VEC3"},{"bufferView":34,"componentType":5126,"count":14664,"max":[0.4140795171260834,0.9426285624504089],"min":[0.039077918976545337,0.49340999126434328],"type":"VEC2"}],"asset":{"generator":"SimLab GLTF","version":"2.0"},"bufferViews":[{"buffer":0,"byteLength":110184,"target":34963},{"buffer":0,"byteLength":168648,"byteOffset":110184,"byteStride":12,"target":34962},{"buffer":0,"byteLength":168648,"byteOffset":278832,"byteStride":12,"target":34962},{"buffer":0,"byteLength":112432,"byteOffset":447480,"byteStride":8,"target":34962},{"buffer":0,"byteLength":19404,"byteOffset":559912,"target":34963},{"buffer":0,"byteLength":39396,"byteOffset":579316,"byteStride":12,"target":34962},{"buffer":0,"byteLength":39396,"byteOffset":618712,"byteStride":12,"target":34962},{"buffer":0,"byteLength":26264,"byteOffset":658108,"byteStride":8,"target":34962},{"buffer":0,"byteLength":26220,"byteOffset":684372,"target":34963},{"buffer":0,"byteLength":48564,"byteOffset":710592,"byteStride":12,"target":34962},{"buffer":0,"byteLength":48564,"byteOffset":759156,"byteStride":12,"target":34962},{"buffer":0,"byteLength":32376,"byteOffset":807720,"byteStride":8,"target":34962},{"buffer":0,"byteLength":0,"byteOffset":840096,"target":34963},{"buffer":0,"byteLength":3732,"byteOffset":840096,"byteStride":12,"target":34962},{"buffer":0,"byteLength":2488,"byteOffset":843828,"byteStride":8,"target":34962},{"buffer":0,"byteLength":3972,"byteOffset":846316,"target":34963},{"buffer":0,"byteLength":9660,"byteOffset":850288,"byteStride":12,"target":34962},{"buffer":0,"byteLength":9660,"byteOffset":859948,"byteStride":12,"target":34962},{"buffer":0,"byteLength":6440,"byteOffset":869608,"byteStride":8,"target":34962},{"buffer":0,"byteLength":1668,"byteOffset":876048,"target":34963},{"buffer":0,"byteLength":4980,"byteOffset":877716,"byteStride":12,"target":34962},{"buffer":0,"byteLength":4980,"byteOffset":882696,"byteStride":12,"target":34962},{"buffer":0,"byteLength":3320,"byteOffset":887676,"byteStride":8,"target":34962},{"buffer":0,"byteLength":192,"byteOffset":890996,"target":34963},{"buffer":0,"byteLength":576,"byteOffset":891188,"byteStride":12,"target":34962},{"buffer":0,"byteLength":576,"byteOffset":891764,"byteStride":12,"target":34962},{"buffer":0,"byteLength":384,"byteOffset":892340,"byteStride":8,"target":34962},{"buffer":0,"byteLength":24,"byteOffset":892724,"target":34963},{"buffer":0,"byteLength":48,"byteOffset":892748,"byteStride":12,"target":34962},{"buffer":0,"byteLength":48,"byteOffset":892796,"byteStride":12,"target":34962},{"buffer":0,"byteLength":32,"byteOffset":892844,"byteStride":8,"target":34962},{"buffer":0,"byteLength":58656,"byteOffset":892876,"target":34963},{"buffer":0,"byteLength":175968,"byteOffset":951532,"byteStride":12,"target":34962},{"buffer":0,"byteLength":175968,"byteOffset":1127500,"byteStride":12,"target":34962},{"buffer":0,"byteLength":117312,"byteOffset":1303468,"byteStride":8,"target":34962}],"buffers":[{"byteLength":1420780,"uri":"LiberyShip.bin"}],"images":[{"mimeType":"image/png","uri":"Textures/boattexture.png"},{"mimeType":"image/png","uri":"Textures/boattexture1.png"},{"mimeType":"image/png","uri":"Textures/Location Snapshot.png"}],"materials":[{"alphaMode":"MASK","doubleSided":true,"pbrMetallicRoughness":{"baseColorTexture":{"index":0},"metallicFactor":0.0}},{"alphaMode":"MASK","doubleSided":true,"pbrMetallicRoughness":{"baseColorFactor":[0.8999999761581421,0.8999999761581421,0.8999999761581421,1.0],"metallicFactor":0.0}},{"alphaMode":"MASK","doubleSided":true,"pbrMetallicRoughness":{"baseColorTexture":{"index":1},"metallicFactor":0.0}},{"alphaMode":"MASK","doubleSided":true,"pbrMetallicRoughness":{"baseColorFactor":[0.0,0.0,0.0,1.0],"metallicFactor":0.0}},{"alphaMode":"MASK","doubleSided":true,"pbrMetallicRoughness":{"baseColorTexture":{"index":2},"metallicFactor":0.0}}],"meshes":[{"primitives":[{"attributes":{"NORMAL":2,"POSITION":1,"TEXCOORD_0":3},"indices":0,"material":0,"mode":4}]},{"primitives":[{"attributes":{"NORMAL":6,"POSITION":5,"TEXCOORD_0":7},"indices":4,"material":1,"mode":4}]},{"primitives":[{"attributes":{"NORMAL":10,"POSITION":9,"TEXCOORD_0":11},"indices":8,"material":2,"mode":4}]},{"primitives":[{"attributes":{"POSITION":13,"TEXCOORD_0":14},"indices":12,"material":3,"mode":4}]},{"primitives":[{"attributes":{"NORMAL":17,"POSITION":16,"TEXCOORD_0":18},"indices":15,"material":0,"mode":4}]},{"primitives":[{"attributes":{"NORMAL":21,"POSITION":20,"TEXCOORD_0":22},"indices":19,"material":2,"mode":4}]},{"primitives":[{"attributes":{"NORMAL":25,"POSITION":24,"TEXCOORD_0":26},"indices":23,"material":1,"mode":4}]},{"primitives":[{"attributes":{"NORMAL":21,"POSITION":20,"TEXCOORD_0":22},"indices":19,"material":2,"mode":4}]},{"primitives":[{"attributes":{"NORMAL":25,"POSITION":24,"TEXCOORD_0":26},"indices":23,"material":1,"mode":4}]},{"primitives":[{"attributes":{"NORMAL":21,"POSITION":20,"TEXCOORD_0":22},"indices":19,"material":2,"mode":4}]},{"primitives":[{"attributes":{"NORMAL":25,"POSITION":24,"TEXCOORD_0":26},"indices":23,"material":1,"mode":4}]},{"primitives":[{"attributes":{"NORMAL":21,"POSITION":20,"TEXCOORD_0":22},"indices":19,"material":2,"mode":4}]},{"primitives":[{"attributes":{"NORMAL":25,"POSITION":24,"TEXCOORD_0":26},"indices":23,"material":1,"mode":4}]},{"primitives":[{"attributes":{"NORMAL":21,"POSITION":20,"TEXCOORD_0":22},"indices":19,"material":2,"mode":4}]},{"primitives":[{"attributes":{"NORMAL":25,"POSITION":24,"TEXCOORD_0":26},"indices":23,"material":1,"mode":4}]},{"primitives":[{"attributes":{"NORMAL":21,"POSITION":20,"TEXCOORD_0":22},"indices":19,"material":2,"mode":4}]},{"primitives":[{"attributes":{"NORMAL":25,"POSITION":24,"TEXCOORD_0":26},"indices":23,"material":1,"mode":4}]},{"primitives":[{"attributes":{"NORMAL":21,"POSITION":20,"TEXCOORD_0":22},"indices":19,"material":2,"mode":4}]},{"primitives":[{"attributes":{"NORMAL":25,"POSITION":24,"TEXCOORD_0":26},"indices":23,"material":1,"mode":4}]},{"primitives":[{"attributes":{"NORMAL":21,"POSITION":20,"TEXCOORD_0":22},"indices":19,"material":2,"mode":4}]},{"primitives":[{"attributes":{"NORMAL":25,"POSITION":24,"TEXCOORD_0":26},"indices":23,"material":1,"mode":4}]},{"primitives":[{"attributes":{"NORMAL":21,"POSITION":20,"TEXCOORD_0":22},"indices":19,"material":2,"mode":4}]},{"primitives":[{"attributes":{"NORMAL":25,"POSITION":24,"TEXCOORD_0":26},"indices":23,"material":1,"mode":4}]},{"primitives":[{"attributes":{"NORMAL":21,"POSITION":20,"TEXCOORD_0":22},"indices":19,"material":2,"mode":4}]},{"primitives":[{"attributes":{"NORMAL":25,"POSITION":24,"TEXCOORD_0":26},"indices":23,"material":1,"mode":4}]},{"primitives":[{"attributes":{"NORMAL":21,"POSITION":20,"TEXCOORD_0":22},"indices":19,"material":2,"mode":4}]},{"primitives":[{"attributes":{"NORMAL":25,"POSITION":24,"TEXCOORD_0":26},"indices":23,"material":1,"mode":4}]},{"primitives":[{"attributes":{"NORMAL":21,"POSITION":20,"TEXCOORD_0":22},"indices":19,"material":2,"mode":4}]},{"primitives":[{"attributes":{"NORMAL":25,"POSITION":24,"TEXCOORD_0":26},"indices":23,"material":1,"mode":4}]},{"primitives":[{"attributes":{"NORMAL":21,"POSITION":20,"TEXCOORD_0":22},"indices":19,"material":2,"mode":4}]},{"primitives":[{"attributes":{"NORMAL":25,"POSITION":24,"TEXCOORD_0":26},"indices":23,"material":1,"mode":4}]},{"primitives":[{"attributes":{"NORMAL":21,"POSITION":20,"TEXCOORD_0":22},"indices":19,"material":2,"mode":4}]},{"primitives":[{"attributes":{"NORMAL":25,"POSITION":24,"TEXCOORD_0":26},"indices":23,"material":1,"mode":4}]},{"primitives":[{"attributes":{"NORMAL":21,"POSITION":20,"TEXCOORD_0":22},"indices":19,"material":2,"mode":4}]},{"primitives":[{"attributes":{"NORMAL":25,"POSITION":24,"TEXCOORD_0":26},"indices":23,"material":1,"mode":4}]},{"primitives":[{"attributes":{"NORMAL":21,"POSITION":20,"TEXCOORD_0":22},"indices":19,"material":2,"mode":4}]},{"primitives":[{"attributes":{"NORMAL":25,"POSITION":24,"TEXCOORD_0":26},"indices":23,"material":1,"mode":4}]},{"primitives":[{"attributes":{"NORMAL":21,"POSITION":20,"TEXCOORD_0":22},"indices":19,"material":2,"mode":4}]},{"primitives":[{"attributes":{"NORMAL":25,"POSITION":24,"TEXCOORD_0":26},"indices":23,"material":1,"mode":4}]},{"primitives":[{"attributes":{"NORMAL":21,"POSITION":20,"TEXCOORD_0":22},"indices":19,"material":2,"mode":4}]},{"primitives":[{"attributes":{"NORMAL":25,"POSITION":24,"TEXCOORD_0":26},"indices":23,"material":1,"mode":4}]},{"primitives":[{"attributes":{"NORMAL":21,"POSITION":20,"TEXCOORD_0":22},"indices":19,"material":2,"mode":4}]},{"primitives":[{"attributes":{"NORMAL":25,"POSITION":24,"TEXCOORD_0":26},"indices":23,"material":1,"mode":4}]},{"primitives":[{"attributes":{"NORMAL":29,"POSITION":28,"TEXCOORD_0":30},"indices":27,"material":4,"mode":4}]},{"primitives":[{"attributes":{"NORMAL":33,"POSITION":32,"TEXCOORD_0":34},"indices":31,"material":4,"mode":4}]}],"nodes":[{"children":[1,2],"matrix":[1.0,0.0,0.0,0.0,0.0,4.4896593387466768e-11,-1.0,0.0,0.0,1.0,4.4896593387466768e-11,0.0,0.0,0.0,0.0,1.0]},{"name":"Camera~3","rotation":[-0.7071067690849304,0.0,0.0,-0.7071067690849304],"translation":[0.00007596435898449272,-209.6079559326172,6.371434688568115]},{"name":"Assembly~45","children":[3,6,9,12,15,19,26,33,40,47,54,61,68,75,82,89,96,103,110,117,124,131,138,145,152,155],"rotation":[0.0,0.0,0.0,-1.0],"scale":[0.02539999969303608,0.02539999969303608,0.02539999969303608]},{"name":"3DGeom~1","children":[5],"rotation":[0.0,0.0,0.0,-1.0]},{"mesh":0},{"children":[4]},{"name":"3DGeom~2","children":[8],"rotation":[0.0,0.0,0.0,-1.0]},{"mesh":1},{"children":[7]},{"name":"3DGeom~3","children":[11],"rotation":[0.0,0.0,0.0,-1.0]},{"mesh":2},{"children":[10]},{"name":"2DGeom","children":[14],"rotation":[0.0,0.0,0.0,-1.0]},{"mesh":3},{"children":[13]},{"children":[16],"rotation":[0.0,0.0,0.585665225982666,-0.8105530142784119],"scale":[0.6159999966621399,0.6159999966621399,0.7084000110626221],"translation":[-297.3600158691406,333.10137939453127,483.0260314941406]},{"name":"3DGeom~4","children":[18],"rotation":[0.0,0.0,0.0,-1.0]},{"mesh":4},{"children":[17]},{"children":[20,23],"rotation":[-0.007696650456637144,-0.011965783312916756,0.9616683721542358,-0.2738458216190338],"scale":[0.0387750007212162,0.0387750007212162,0.0387750007212162],"translation":[79.43417358398438,-31.422449111938478,297.1894226074219]},{"name":"3DGeom~5","children":[22],"rotation":[0.0,0.0,0.0,-1.0]},{"mesh":5},{"children":[21]},{"name":"3DGeom~6","children":[25],"rotation":[0.0,0.0,0.0,-1.0]},{"mesh":6},{"children":[24]},{"children":[27,30],"rotation":[-0.007696650456637144,-0.011965783312916756,0.9616683721542358,-0.2738458216190338],"scale":[0.0387750007212162,0.0387750007212162,0.0387750007212162],"translation":[58.054378509521487,6.418251037597656,297.93463134765627]},{"name":"3DGeom~5","children":[29],"rotation":[0.0,0.0,0.0,-1.0]},{"mesh":7},{"children":[28]},{"name":"3DGeom~6","children":[32],"rotation":[0.0,0.0,0.0,-1.0]},{"mesh":8},{"children":[31]},{"children":[34,37],"rotation":[-0.007696650456637144,-0.011965783312916756,0.9616683721542358,-0.2738458216190338],"scale":[0.0387750007212162,0.0387750007212162,0.0387750007212162],"translation":[-206.79925537109376,161.5316162109375,304.9556884765625]},{"name":"3DGeom~5","children":[36],"rotation":[0.0,0.0,0.0,-1.0]},{"mesh":9},{"children":[35]},{"name":"3DGeom~6","children":[39],"rotation":[0.0,0.0,0.0,-1.0]},{"mesh":10},{"children":[38]},{"children":[41,44],"rotation":[-0.007696650456637144,-0.011965783312916756,0.9616683721542358,-0.2738458216190338],"scale":[0.0387750007212162,0.0387750007212162,0.0387750007212162],"translation":[-171.6867218017578,98.11246490478516,303.5854797363281]},{"name":"3DGeom~5","children":[43],"rotation":[0.0,0.0,0.0,-1.0]},{"mesh":11},{"children":[42]},{"name":"3DGeom~6","children":[46],"rotation":[0.0,0.0,0.0,-1.0]},{"mesh":12},{"children":[45]},{"children":[48,51],"rotation":[-0.007696650456637144,-0.011965783312916756,0.9616683721542358,-0.2738458216190338],"scale":[0.0387750007212162,0.0387750007212162,0.0387750007212162],"translation":[-150.0550079345703,327.0589904785156,306.36541748046877]},{"name":"3DGeom~5","children":[50],"rotation":[0.0,0.0,0.0,-1.0]},{"mesh":13},{"children":[49]},{"name":"3DGeom~6","children":[53],"rotation":[0.0,0.0,0.0,-1.0]},{"mesh":14},{"children":[52]},{"children":[55,58],"rotation":[-0.007696650456637144,-0.011965783312916756,0.9616683721542358,-0.2738458216190338],"scale":[0.0387750007212162,0.0387750007212162,0.0387750007212162],"translation":[-285.8228759765625,-16.12357521057129,302.9634094238281]},{"name":"3DGeom~5","children":[57],"rotation":[0.0,0.0,0.0,-1.0]},{"mesh":15},{"children":[56]},{"name":"3DGeom~6","children":[60],"rotation":[0.0,0.0,0.0,-1.0]},{"mesh":16},{"children":[59]},{"children":[62,65],"rotation":[-0.007696650456637144,-0.011965783312916756,0.9616683721542358,-0.2738458216190338],"scale":[0.0387750007212162,0.0387750007212162,0.0387750007212162],"translation":[-259.6394958496094,-60.099334716796878,301.99420166015627]},{"name":"3DGeom~5","children":[64],"rotation":[0.0,0.0,0.0,-1.0]},{"mesh":17},{"children":[63]},{"name":"3DGeom~6","children":[67],"rotation":[0.0,0.0,0.0,-1.0]},{"mesh":18},{"children":[66]},{"children":[69,72],"rotation":[-0.007696650456637144,-0.011965783312916756,0.9616683721542358,-0.2738458216190338],"scale":[0.0387750007212162,0.0387750007212162,0.0387750007212162],"translation":[251.93450927734376,-411.83056640625,291.0975036621094]},{"name":"3DGeom~5","children":[71],"rotation":[0.0,0.0,0.0,-1.0]},{"mesh":19},{"children":[70]},{"name":"3DGeom~6","children":[74],"rotation":[0.0,0.0,0.0,-1.0]},{"mesh":20},{"children":[73]},{"children":[76,79],"rotation":[-0.007696650456637144,-0.011965783312916756,0.9616683721542358,-0.2738458216190338],"scale":[0.0387750007212162,0.0387750007212162,0.0387750007212162],"translation":[215.70614624023438,-358.176513671875,292.3246154785156]},{"name":"3DGeom~5","children":[78],"rotation":[0.0,0.0,0.0,-1.0]},{"mesh":21},{"children":[77]},{"name":"3DGeom~6","children":[81],"rotation":[0.0,0.0,0.0,-1.0]},{"mesh":22},{"children":[80]},{"children":[83,86],"rotation":[-0.007696650456637144,-0.011965783312916756,0.9616683721542358,-0.2738458216190338],"scale":[0.0387750007212162,0.0387750007212162,0.0387750007212162],"translation":[78.85359191894531,-520.0344848632813,291.1844787597656]},{"name":"3DGeom~5","children":[85],"rotation":[0.0,0.0,0.0,-1.0]},{"mesh":23},{"children":[84]},{"name":"3DGeom~6","children":[88],"rotation":[0.0,0.0,0.0,-1.0]},{"mesh":24},{"children":[87]},{"children":[90,93],"rotation":[-0.007696650456637144,-0.011965783312916756,0.9616683721542358,-0.2738458216190338],"scale":[0.0387750007212162,0.0387750007212162,0.0387750007212162],"translation":[41.989959716796878,-467.5340881347656,292.39990234375]},{"name":"3DGeom~5","children":[92],"rotation":[0.0,0.0,0.0,-1.0]},{"mesh":25},{"children":[91]},{"name":"3DGeom~6","children":[95],"rotation":[0.0,0.0,0.0,-1.0]},{"mesh":26},{"children":[94]},{"children":[97,100],"rotation":[-0.007696650456637144,-0.011965783312916756,0.9616683721542358,-0.2738458216190338],"scale":[0.0387750007212162,0.0387750007212162,0.0387750007212162],"translation":[-122.9071273803711,293.7442626953125,305.69805908203127]},{"name":"3DGeom~5","children":[99],"rotation":[0.0,0.0,0.0,-1.0]},{"mesh":27},{"children":[98]},{"name":"3DGeom~6","children":[102],"rotation":[0.0,0.0,0.0,-1.0]},{"mesh":28},{"children":[101]},{"children":[104,107],"rotation":[-0.007696650456637144,-0.011965783312916756,0.9616683721542358,-0.2738458216190338],"scale":[0.0387750007212162,0.0387750007212162,0.0387750007212162],"translation":[173.23626708984376,-283.21539306640627,293.9542541503906]},{"name":"3DGeom~5","children":[106],"rotation":[0.0,0.0,0.0,-1.0]},{"mesh":29},{"children":[105]},{"name":"3DGeom~6","children":[109],"rotation":[0.0,0.0,0.0,-1.0]},{"mesh":30},{"children":[108]},{"children":[111,114],"rotation":[-0.007696650456637144,-0.011965783312916756,0.9616683721542358,-0.2738458216190338],"scale":[0.0387750007212162,0.0387750007212162,0.0387750007212162],"translation":[-166.99098205566407,-207.44595336914063,298.69549560546877]},{"name":"3DGeom~5","children":[113],"rotation":[0.0,0.0,0.0,-1.0]},{"mesh":31},{"children":[112]},{"name":"3DGeom~6","children":[116],"rotation":[0.0,0.0,0.0,-1.0]},{"mesh":32},{"children":[115]},{"children":[118,121],"rotation":[-0.007696650456637144,-0.011965783312916756,0.9616683721542358,-0.2738458216190338],"scale":[0.0387750007212162,0.0387750007212162,0.0387750007212162],"translation":[-131.04627990722657,-257.41998291015627,297.5296630859375]},{"name":"3DGeom~5","children":[120],"rotation":[0.0,0.0,0.0,-1.0]},{"mesh":33},{"children":[119]},{"name":"3DGeom~6","children":[123],"rotation":[0.0,0.0,0.0,-1.0]},{"mesh":34},{"children":[122]},{"children":[125,128],"rotation":[-0.007696650456637144,-0.011965783312916756,0.9616683721542358,-0.2738458216190338],"scale":[0.0387750007212162,0.0387750007212162,0.0387750007212162],"translation":[-155.163818359375,-214.1999053955078,111.97547149658203]},{"name":"3DGeom~5","children":[127],"rotation":[0.0,0.0,0.0,-1.0]},{"mesh":35},{"children":[126]},{"name":"3DGeom~6","children":[130],"rotation":[0.0,0.0,0.0,-1.0]},{"mesh":36},{"children":[129]},{"children":[132,135],"rotation":[-0.007696650456637144,-0.011965783312916756,0.9616683721542358,-0.2738458216190338],"scale":[0.0387750007212162,0.0387750007212162,0.0387750007212162],"translation":[-64.5079574584961,-359.9154968261719,208.43283081054688]},{"name":"3DGeom~5","children":[134],"rotation":[0.0,0.0,0.0,-1.0]},{"mesh":37},{"children":[133]},{"name":"3DGeom~6","children":[137],"rotation":[0.0,0.0,0.0,-1.0]},{"mesh":38},{"children":[136]},{"children":[139,142],"rotation":[-0.007696650456637144,-0.011965783312916756,0.9616683721542358,-0.2738458216190338],"scale":[0.0387750007212162,0.0387750007212162,0.0387750007212162],"translation":[147.62330627441407,-118.84440612792969,209.67893981933595]},{"name":"3DGeom~5","children":[141],"rotation":[0.0,0.0,0.0,-1.0]},{"mesh":39},{"children":[140]},{"name":"3DGeom~6","children":[144],"rotation":[0.0,0.0,0.0,-1.0]},{"mesh":40},{"children":[143]},{"children":[146,149],"rotation":[-0.007696650456637144,-0.011965783312916756,0.9616683721542358,-0.2738458216190338],"scale":[0.0387750007212162,0.0387750007212162,0.0387750007212162],"translation":[150.69566345214845,-104.54300689697266,110.38935852050781]},{"name":"3DGeom~5","children":[148],"rotation":[0.0,0.0,0.0,-1.0]},{"mesh":41},{"children":[147]},{"name":"3DGeom~6","children":[151],"rotation":[0.0,0.0,0.0,-1.0]},{"mesh":42},{"children":[150]},{"name":"Location Snapshot","children":[154],"rotation":[0.0,0.0,0.0,-1.0]},{"mesh":43},{"children":[153]},{"name":"Location Terrain","children":[157],"rotation":[0.0,0.0,0.0,-1.0]},{"mesh":44},{"children":[156]}],"samplers":[{"wrapS":10497,"wrapT":10497}],"scene":0,"scenes":[{"nodes":[0]}],"textures":[{"source":0},{"source":1},{"source":2}]}