{"accessors":[{"bufferView":0,"componentType":5125,"count":9321,"max":[4948.0],"min":[0.0],"type":"SCALAR"},{"bufferView":1,"componentType":5126,"count":4949,"max":[3915.73779296875,646.671630859375,922.3692016601563],"min":[0.0,0.0,0.0],"type":"VEC3"},{"bufferView":2,"componentType":5126,"count":4949,"max":[1.0,1.0,1.0],"min":[-1.0,-1.0,-1.0],"type":"VEC3"},{"bufferView":3,"componentType":5126,"count":4949,"max":[3.947847604751587,3.746145725250244],"min":[-3.164846658706665,-2.207836389541626],"type":"VEC2"},{"bufferView":4,"componentType":5125,"count":429,"max":[248.0],"min":[0.0],"type":"SCALAR"},{"bufferView":5,"componentType":5126,"count":249,"max":[3869.64404296875,646.54248046875,919.6974487304688],"min":[4.0,22.854509353637697,0.0],"type":"VEC3"},{"bufferView":6,"componentType":5126,"count":249,"max":[0.9999971389770508,1.0,1.0],"min":[-1.0,-0.9990971684455872,-1.0],"type":"VEC3"},{"bufferView":7,"componentType":5126,"count":249,"max":[1.0,1.0],"min":[-1.1102230246251566e-16,0.0],"type":"VEC2"},{"bufferView":8,"componentType":5125,"count":12,"max":[7.0],"min":[0.0],"type":"SCALAR"},{"bufferView":9,"componentType":5126,"count":8,"max":[3862.14404296875,639.04248046875,667.0066528320313],"min":[3722.26904296875,639.04248046875,585.257080078125],"type":"VEC3"},{"bufferView":10,"componentType":5126,"count":8,"max":[1.1754943508222876e-38,1.1754943508222876e-38,1.1754943508222876e-38],"min":[0.0,-1.0,0.0],"type":"VEC3"},{"bufferView":11,"componentType":5126,"count":8,"max":[1.0,1.0],"min":[-3.552713678800501e-15,0.0],"type":"VEC2"},{"bufferView":12,"componentType":5125,"count":12,"max":[7.0],"min":[0.0],"type":"SCALAR"},{"bufferView":13,"componentType":5126,"count":8,"max":[3722.26904296875,639.04248046875,667.0066528320313],"min":[3722.26904296875,499.8550109863281,585.257080078125],"type":"VEC3"},{"bufferView":14,"componentType":5126,"count":8,"max":[1.0,1.1754943508222876e-38,1.1754943508222876e-38],"min":[1.0,0.0,0.0],"type":"VEC3"},{"bufferView":15,"componentType":5126,"count":8,"max":[1.0,1.0],"min":[-4.440892098500626e-16,0.0],"type":"VEC2"},{"bufferView":16,"componentType":5125,"count":0,"max":[-2147483648.0],"min":[2147483648.0],"type":"SCALAR"},{"bufferView":17,"componentType":5126,"count":59,"max":[3862.14404296875,639.04248046875,920.2086791992188],"min":[20.976591110229493,12.0625,193.125],"type":"VEC3"},{"bufferView":18,"componentType":5126,"count":59,"max":[1.0,0.9659867882728577],"min":[0.013952463865280152,0.04338109493255615],"type":"VEC2"},{"bufferView":19,"componentType":5125,"count":6,"max":[3.0],"min":[0.0],"type":"SCALAR"},{"bufferView":20,"componentType":5126,"count":4,"max":[4070.78759765625,3510.770263671875,1.1754943508222876e-38],"min":[-4070.890869140625,-3492.982177734375,0.0],"type":"VEC3"},{"bufferView":21,"componentType":5126,"count":4,"max":[1.1754943508222876e-38,1.1754943508222876e-38,1.0],"min":[-0.0,-0.0,1.0],"type":"VEC3"},{"bufferView":22,"componentType":5126,"count":4,"max":[0.9101671576499939,0.9355452060699463],"min":[0.027343420311808587,0.17578858137130738],"type":"VEC2"},{"bufferView":23,"componentType":5125,"count":14640,"max":[14639.0],"min":[0.0],"type":"SCALAR"},{"bufferView":24,"componentType":5126,"count":14640,"max":[4070.78759765625,3510.770263671875,191.28369140625],"min":[-4070.890869140625,-3492.982177734375,-90.02094268798828],"type":"VEC3"},{"bufferView":25,"componentType":5126,"count":14640,"max":[0.5049846172332764,0.48257920145988467,1.0],"min":[-0.578260600566864,-0.4727209210395813,0.8142896294593811],"type":"VEC3"},{"bufferView":26,"componentType":5126,"count":14640,"max":[0.9101671576499939,0.9355482459068298],"min":[0.027343420311808587,0.17578858137130738],"type":"VEC2"}],"asset":{"generator":"SimLab GLTF","version":"2.0"},"bufferViews":[{"buffer":0,"byteLength":37284,"target":34963},{"buffer":0,"byteLength":59388,"byteOffset":37284,"byteStride":12,"target":34962},{"buffer":0,"byteLength":59388,"byteOffset":96672,"byteStride":12,"target":34962},{"buffer":0,"byteLength":39592,"byteOffset":156060,"byteStride":8,"target":34962},{"buffer":0,"byteLength":1716,"byteOffset":195652,"target":34963},{"buffer":0,"byteLength":2988,"byteOffset":197368,"byteStride":12,"target":34962},{"buffer":0,"byteLength":2988,"byteOffset":200356,"byteStride":12,"target":34962},{"buffer":0,"byteLength":1992,"byteOffset":203344,"byteStride":8,"target":34962},{"buffer":0,"byteLength":48,"byteOffset":205336,"target":34963},{"buffer":0,"byteLength":96,"byteOffset":205384,"byteStride":12,"target":34962},{"buffer":0,"byteLength":96,"byteOffset":205480,"byteStride":12,"target":34962},{"buffer":0,"byteLength":64,"byteOffset":205576,"byteStride":8,"target":34962},{"buffer":0,"byteLength":48,"byteOffset":205640,"target":34963},{"buffer":0,"byteLength":96,"byteOffset":205688,"byteStride":12,"target":34962},{"buffer":0,"byteLength":96,"byteOffset":205784,"byteStride":12,"target":34962},{"buffer":0,"byteLength":64,"byteOffset":205880,"byteStride":8,"target":34962},{"buffer":0,"byteLength":0,"byteOffset":205944,"target":34963},{"buffer":0,"byteLength":708,"byteOffset":205944,"byteStride":12,"target":34962},{"buffer":0,"byteLength":472,"byteOffset":206652,"byteStride":8,"target":34962},{"buffer":0,"byteLength":24,"byteOffset":207124,"target":34963},{"buffer":0,"byteLength":48,"byteOffset":207148,"byteStride":12,"target":34962},{"buffer":0,"byteLength":48,"byteOffset":207196,"byteStride":12,"target":34962},{"buffer":0,"byteLength":32,"byteOffset":207244,"byteStride":8,"target":34962},{"buffer":0,"byteLength":58560,"byteOffset":207276,"target":34963},{"buffer":0,"byteLength":175680,"byteOffset":265836,"byteStride":12,"target":34962},{"buffer":0,"byteLength":175680,"byteOffset":441516,"byteStride":12,"target":34962},{"buffer":0,"byteLength":117120,"byteOffset":617196,"byteStride":8,"target":34962}],"buffers":[{"byteLength":734316,"uri":"PierA.bin"}],"images":[{"mimeType":"image/png","uri":"Textures/pier_a.png"},{"mimeType":"image/png","uri":"Textures/pier_a1.png"},{"mimeType":"image/png","uri":"Textures/pier_a2.png"},{"mimeType":"image/png","uri":"Textures/Location Snapshot.png"}],"materials":[{"alphaMode":"MASK","doubleSided":true,"pbrMetallicRoughness":{"baseColorTexture":{"index":0},"metallicFactor":0.0}},{"alphaMode":"MASK","doubleSided":true,"pbrMetallicRoughness":{"baseColorFactor":[0.8999999761581421,0.8999999761581421,0.8999999761581421,1.0],"metallicFactor":0.0}},{"alphaMode":"MASK","doubleSided":true,"pbrMetallicRoughness":{"baseColorTexture":{"index":1},"metallicFactor":0.0}},{"alphaMode":"MASK","doubleSided":true,"pbrMetallicRoughness":{"baseColorTexture":{"index":2},"metallicFactor":0.0}},{"alphaMode":"MASK","doubleSided":true,"pbrMetallicRoughness":{"baseColorFactor":[0.0,0.0,0.0,1.0],"metallicFactor":0.0}},{"alphaMode":"MASK","doubleSided":true,"pbrMetallicRoughness":{"baseColorTexture":{"index":3},"metallicFactor":0.0}}],"meshes":[{"primitives":[{"attributes":{"NORMAL":2,"POSITION":1,"TEXCOORD_0":3},"indices":0,"material":0,"mode":4}]},{"primitives":[{"attributes":{"NORMAL":6,"POSITION":5,"TEXCOORD_0":7},"indices":4,"material":1,"mode":4}]},{"primitives":[{"attributes":{"NORMAL":10,"POSITION":9,"TEXCOORD_0":11},"indices":8,"material":2,"mode":4}]},{"primitives":[{"attributes":{"NORMAL":14,"POSITION":13,"TEXCOORD_0":15},"indices":12,"material":3,"mode":4}]},{"primitives":[{"attributes":{"POSITION":17,"TEXCOORD_0":18},"indices":16,"material":4,"mode":4}]},{"primitives":[{"attributes":{"NORMAL":21,"POSITION":20,"TEXCOORD_0":22},"indices":19,"material":5,"mode":4}]},{"primitives":[{"attributes":{"NORMAL":25,"POSITION":24,"TEXCOORD_0":26},"indices":23,"material":5,"mode":4}]}],"nodes":[{"children":[1,2,18,22],"matrix":[1.0,0.0,0.0,0.0,0.0,4.4896593387466768e-11,-1.0,0.0,0.0,1.0,4.4896593387466768e-11,0.0,0.0,0.0,0.0,1.0]},{"name":"Camera~2","rotation":[-0.7071067690849304,0.0,0.0,-0.7071067690849304],"translation":[-0.0013115478213876486,-826.9686279296875,11.75002670288086]},{"children":[3,6,9,12,15],"rotation":[-2.051038003961575e-16,5.710233438641055e-16,0.9975028038024902,-0.07062698155641556],"scale":[0.02539999969303608,0.02539999969303608,0.02539999969303608],"translation":[33.17608642578125,7.728098392486572,0.07187499850988388]},{"name":"3DGeom~1","children":[5],"rotation":[0.0,0.0,0.0,-1.0]},{"mesh":0},{"children":[4]},{"name":"3DGeom~2","children":[8],"rotation":[0.0,0.0,0.0,-1.0]},{"mesh":1},{"children":[7]},{"name":"3DGeom~3","children":[11],"rotation":[0.0,0.0,0.0,-1.0]},{"mesh":2},{"children":[10]},{"name":"3DGeom~4","children":[14],"rotation":[0.0,0.0,0.0,-1.0]},{"mesh":3},{"children":[13]},{"name":"2DGeom","children":[17],"rotation":[0.0,0.0,0.0,-1.0]},{"mesh":4},{"children":[16]},{"name":"Location Snapshot","children":[19],"rotation":[0.0,0.0,0.0,-1.0],"scale":[0.02539999969303608,0.02539999969303608,0.02539999969303608]},{"name":"3DGeom~6","children":[21],"rotation":[0.0,0.0,0.0,-1.0]},{"mesh":5},{"children":[20]},{"name":"Location Terrain","children":[23],"rotation":[0.0,0.0,0.0,-1.0],"scale":[0.02539999969303608,0.02539999969303608,0.02539999969303608]},{"name":"3DGeom~7","children":[25],"rotation":[0.0,0.0,0.0,-1.0]},{"mesh":6},{"children":[24]}],"samplers":[{"wrapS":10497,"wrapT":10497}],"scene":0,"scenes":[{"nodes":[0]}],"textures":[{"source":0},{"source":1},{"source":2},{"source":3}]}